<?xml version="1.0" standalone="no"?>
<!DOCTYPE svg PUBLIC "-//W3C//DTD SVG 20010904//EN"
 "http://www.w3.org/TR/2001/REC-SVG-20010904/DTD/svg10.dtd">
<svg version="1.0" xmlns="http://www.w3.org/2000/svg"
 width="500.000000pt" height="500.000000pt" viewBox="0 0 500.000000 500.000000"
 preserveAspectRatio="xMidYMid meet">

<g transform="translate(0.000000,500.000000) scale(0.100000,-0.100000)"
fill="#000000" stroke="none">
<path d="M1525 3128 c-16 -5 -103 -51 -192 -102 -139 -78 -159 -92 -140 -99
12 -4 61 -27 108 -51 l86 -43 104 59 c57 32 114 58 127 58 60 0 118 -47 122
-101 5 -53 -1 -72 -34 -105 -28 -28 -41 -34 -78 -34 -73 0 -130 -23 -306 -123
-126 -71 -179 -96 -217 -101 -128 -16 -221 -80 -271 -184 -39 -81 -39 -183 0
-264 54 -115 165 -182 296 -181 79 1 110 14 301 124 128 74 151 84 211 90 126
14 219 77 270 184 46 99 38 213 -22 308 l-30 47 29 45 c85 134 62 300 -57 407
-30 27 -71 51 -102 61 -58 19 -158 21 -205 5z m183 -663 c36 -39 42 -86 17
-134 -15 -30 -69 -61 -106 -61 -22 0 -229 109 -229 120 0 5 42 30 150 87 81
43 119 41 168 -12z m-470 -224 c140 -79 138 -68 19 -134 -111 -62 -148 -69
-198 -40 -76 45 -76 159 0 206 45 28 85 21 179 -32z"/>
<path d="M3325 3091 c-153 -69 -169 -286 -29 -381 52 -35 154 -40 211 -12 72
37 123 115 123 190 0 22 -2 23 -102 20 l-103 -3 -3 -32 -3 -33 55 0 c61 0 65
-4 38 -36 -24 -31 -55 -44 -100 -44 -91 0 -149 105 -107 194 37 77 155 92 203
24 10 -13 26 -18 62 -18 45 0 48 2 42 22 -3 12 -24 40 -46 63 -65 64 -161 83
-241 46z"/>
<path d="M2290 2890 l0 -210 125 0 125 0 0 40 0 40 -75 0 -75 0 0 45 0 45 70
0 70 0 0 45 0 45 -70 0 -70 0 0 40 0 40 75 0 75 0 0 40 0 40 -125 0 -125 0 0
-210z"/>
<path d="M2710 2889 l0 -211 94 4 c83 3 100 7 142 33 109 68 129 226 40 323
-42 47 -88 62 -186 62 l-90 0 0 -211z m202 93 c76 -75 29 -212 -73 -212 l-39
0 0 126 0 127 42 -6 c27 -4 51 -15 70 -35z"/>
<path d="M3790 2890 l0 -210 120 0 120 0 0 40 0 40 -75 0 -75 0 0 45 0 45 70
0 70 0 0 45 0 45 -70 0 -70 0 0 40 0 40 75 0 75 0 0 40 0 40 -120 0 -120 0 0
-210z"/>
<path d="M3249 2332 c-126 -65 -155 -223 -63 -331 89 -103 275 -91 344 22 11
18 20 35 20 40 0 4 -22 7 -48 7 -35 0 -54 -5 -66 -19 -86 -95 -240 2 -206 129
25 92 149 126 205 56 17 -21 29 -26 68 -26 54 0 59 12 25 56 -72 94 -178 119
-279 66z"/>
<path d="M2260 2310 l0 -40 60 0 60 0 0 -170 0 -170 45 0 45 0 0 170 0 170 60
0 60 0 0 40 0 40 -165 0 -165 0 0 -40z"/>
<path d="M2730 2140 l0 -210 125 0 125 0 0 40 0 39 -77 3 -78 3 -3 43 -3 42
75 0 76 0 0 45 0 45 -75 0 -75 0 0 40 0 40 80 0 80 0 0 40 0 40 -125 0 -125 0
0 -210z"/>
<path d="M3710 2140 l0 -210 45 0 45 0 0 85 0 85 70 0 70 0 0 -85 0 -85 50 0
50 0 0 210 0 210 -50 0 -50 0 0 -80 0 -80 -70 0 -70 0 0 80 0 80 -45 0 -45 0
0 -210z"/>
</g>
</svg>
